<svg width="18" height="18" viewBox="0 0 18 18" fill="none" xmlns="http://www.w3.org/2000/svg">
<path fill-rule="evenodd" clip-rule="evenodd" d="M7.40903 2.15901C7.83099 1.73705 8.40329 1.5 9.00002 1.5C9.59676 1.5 10.1691 1.73705 10.591 2.15901C10.9532 2.52124 11.1792 2.99425 11.2359 3.49841C12.054 3.88365 12.7616 4.47505 13.2869 5.21826C13.9137 6.10497 14.2501 7.16415 14.25 8.25C14.25 8.25003 14.25 8.24997 14.25 8.25V10.6185C14.25 10.7201 14.27 10.8209 14.3089 10.9148C14.3478 11.0087 14.4048 11.094 14.4766 11.1659C14.4766 11.1659 14.4766 11.1659 14.4766 11.1659L15.5304 12.2197C15.7449 12.4342 15.809 12.7568 15.6929 13.037C15.5768 13.3173 15.3034 13.5 15 13.5H12C12 14.2957 11.684 15.0587 11.1213 15.6213C10.5587 16.1839 9.79567 16.5 9.00002 16.5C8.20437 16.5 7.44131 16.1839 6.8787 15.6213C6.31609 15.0587 6.00002 14.2957 6.00002 13.5H3.00002C2.69668 13.5 2.4232 13.3173 2.30711 13.037C2.19103 12.7568 2.25519 12.4342 2.46969 12.2197L3.52344 11.1659C3.66855 11.0208 3.75002 10.8238 3.75002 10.6193V8.25C3.75002 6.14946 4.98386 4.33814 6.76411 3.49856C6.82079 2.99435 7.04677 2.52127 7.40903 2.15901ZM13.2176 12C13.0979 11.8434 12.9987 11.6716 12.923 11.4887C12.8088 11.2128 12.75 10.9171 12.75 10.6185C12.75 10.6185 12.75 10.6185 12.75 10.6185V8.25C12.7501 7.47428 12.5097 6.71752 12.062 6.08407C11.6143 5.45062 10.9811 4.97154 10.2499 4.7128C9.95028 4.6068 9.75002 4.32352 9.75002 4.00575V3.75C9.75002 3.55109 9.671 3.36032 9.53035 3.21967C9.3897 3.07902 9.19893 3 9.00002 3C8.80111 3 8.61034 3.07902 8.46969 3.21967C8.32904 3.36032 8.25002 3.55109 8.25002 3.75V4.00575C8.25002 4.32356 8.04971 4.60687 7.75008 4.71284C6.29273 5.22823 5.25002 6.61876 5.25002 8.25V10.6193C5.25002 11.1207 5.08405 11.6056 4.78248 12H13.2176ZM7.50002 13.5C7.50002 13.8978 7.65806 14.2794 7.93936 14.5607C8.22067 14.842 8.6022 15 9.00002 15C9.39785 15 9.77938 14.842 10.0607 14.5607C10.342 14.2794 10.5 13.8978 10.5 13.5H7.50002Z" fill="#171717"/>
</svg>
