<svg width="155" height="156" viewBox="0 0 155 156" fill="none" xmlns="http://www.w3.org/2000/svg">
<rect x="2.16279" y="2.66279" width="150.674" height="150.674" rx="75.3372" fill="white"/>
<rect x="2.16279" y="2.66279" width="150.674" height="150.674" rx="75.3372" stroke="url(#paint0_linear_467_17872)" stroke-width="4.32558"/>
<g clip-path="url(#clip0_467_17872)">
<path d="M57.4408 51.7052L53.9093 42.5171C53.665 41.8818 52.9381 41.5432 52.2941 41.7636C49.5015 42.7198 47.4944 44.5414 46.2729 47.2287C45.9912 47.8484 46.258 48.6046 46.8668 48.9091L55.6705 53.312C56.7174 53.8355 57.8607 52.7977 57.4408 51.7052Z" fill="#F8D448"/>
<path d="M98.2798 51.7051L101.811 42.5171C102.056 41.8818 102.782 41.5432 103.426 41.7636C106.219 42.7198 108.226 44.5414 109.448 47.2287C109.729 47.8484 109.463 48.6046 108.854 48.9091L100.05 53.312C99.0032 53.8354 97.8599 52.7976 98.2798 51.7051Z" fill="#F8D448"/>
<path d="M57.4409 103.574L53.9094 112.762C53.6651 113.397 52.9382 113.736 52.2943 113.515C49.5015 112.559 47.4944 110.737 46.2729 108.05C45.9912 107.43 46.258 106.674 46.8668 106.37L55.6705 101.967C56.7175 101.444 57.8609 102.481 57.4409 103.574Z" fill="#F8D448"/>
<path d="M98.2798 103.574L101.811 112.762C102.056 113.397 102.782 113.736 103.426 113.515C106.219 112.559 108.226 110.737 109.448 108.05C109.729 107.43 109.463 106.674 108.854 106.37L100.05 101.967C99.0032 101.444 97.8599 102.481 98.2798 103.574Z" fill="#F8D448"/>
<path d="M42.3794 79.8665C41.5992 78.3471 41.6467 76.7817 42.3965 75.1772C42.6027 74.7356 43.1411 74.5605 43.5762 74.7802L47.6476 76.8364C48.3027 77.1672 48.2827 78.1095 47.6143 78.4124L43.5212 80.2674C43.0949 80.4605 42.5932 80.2827 42.3794 79.8665Z" fill="#FBE88C"/>
<path d="M113.341 79.8665C114.122 78.3471 114.074 76.7817 113.325 75.1772C113.118 74.7356 112.58 74.5605 112.145 74.7802L108.073 76.8364C107.418 77.1672 107.438 78.1095 108.107 78.4124L112.2 80.2674C112.626 80.4605 113.128 80.2827 113.341 79.8665Z" fill="#FBE88C"/>
<path d="M67.5501 49.1458C67.0777 49.1458 66.6435 48.8345 66.5082 48.3575L65.3431 44.2459C65.18 43.6703 65.5144 43.0713 66.09 42.9081C66.6658 42.7447 67.2648 43.0794 67.4278 43.6551L68.593 47.7667C68.7561 48.3424 68.4217 48.9413 67.846 49.1045C67.7472 49.1326 67.6479 49.1458 67.5501 49.1458Z" fill="#FBE372"/>
<path d="M51.3632 60.6848C51.2154 60.6848 51.0653 60.6544 50.9216 60.5901L47.6901 59.1456C47.1439 58.9013 46.8989 58.2606 47.1432 57.7143C47.3875 57.168 48.0279 56.9231 48.5745 57.1674L51.8059 58.612C52.3521 58.8562 52.5971 59.4969 52.3529 60.0432C52.173 60.4458 51.7775 60.6848 51.3632 60.6848Z" fill="#FBE372"/>
<path d="M47.9222 91.8628C47.5693 91.8628 47.2231 91.6906 47.0151 91.3733C46.6871 90.8729 46.8268 90.2013 47.3272 89.8732L50.2873 87.9325C50.7876 87.6043 51.4593 87.744 51.7874 88.2445C52.1154 88.745 51.9757 89.4165 51.4753 89.7445L48.5152 91.6853C48.3321 91.8055 48.126 91.8628 47.9222 91.8628Z" fill="#FBE372"/>
<path d="M67.5495 110.817C67.3751 110.817 67.1983 110.775 67.0342 110.686C66.5081 110.401 66.3128 109.743 66.5979 109.217L68.2845 106.105C68.5696 105.579 69.2269 105.384 69.7531 105.669C70.2792 105.954 70.4745 106.611 70.1894 107.137L68.5029 110.249C68.3068 110.611 67.9343 110.817 67.5495 110.817Z" fill="#FBE372"/>
<path d="M88.1708 49.1458C88.073 49.1458 87.9736 49.1325 87.8748 49.1045C87.2991 48.9414 86.9645 48.3425 87.1278 47.7667L88.293 43.655C88.456 43.0795 89.0548 42.7448 89.6308 42.908C90.2064 43.0711 90.541 43.67 90.3777 44.2458L89.2126 48.3575C89.0775 48.8345 88.6431 49.1458 88.1708 49.1458Z" fill="#FBE372"/>
<path d="M104.357 60.6846C103.943 60.6846 103.548 60.4456 103.368 60.043C103.124 59.4967 103.368 58.856 103.915 58.6118L107.146 57.1672C107.692 56.9234 108.333 57.1678 108.577 57.7141C108.821 58.2605 108.577 58.9011 108.03 59.1454L104.799 60.5899C104.655 60.6542 104.505 60.6846 104.357 60.6846Z" fill="#FBE372"/>
<path d="M107.799 91.8632C107.595 91.8632 107.389 91.8059 107.206 91.6857L104.245 89.7449C103.745 89.4168 103.605 88.7453 103.933 88.2449C104.262 87.7445 104.933 87.6048 105.434 87.9329L108.394 89.8736C108.894 90.2017 109.034 90.8732 108.706 91.3736C108.498 91.6909 108.152 91.8632 107.799 91.8632Z" fill="#FBE372"/>
<path d="M88.1711 110.816C87.7863 110.816 87.4137 110.611 87.2175 110.249L85.531 107.137C85.2459 106.611 85.4413 105.953 85.9674 105.668C86.4937 105.383 87.1512 105.578 87.4361 106.105L89.1226 109.217C89.4078 109.743 89.2123 110.4 88.6862 110.685C88.5223 110.774 88.3454 110.816 88.1711 110.816Z" fill="#FBE372"/>
<path d="M79.7205 50.1866L86.2558 63.4287C86.5277 63.9797 87.0534 64.3616 87.6614 64.4499L102.275 66.5734C103.806 66.7958 104.418 68.6775 103.31 69.7575L92.7351 80.0649C92.2951 80.4938 92.0944 81.1117 92.1983 81.7172L94.6946 96.2717C94.9563 97.7966 93.3555 98.9596 91.9861 98.2396L78.9155 91.368C78.3716 91.0821 77.722 91.0821 77.1781 91.368L64.1075 98.2396C62.738 98.9596 61.1375 97.7967 61.3989 96.2717L63.8953 81.7172C63.9991 81.1117 63.7983 80.4938 63.3585 80.0649L52.784 69.7575C51.6761 68.6775 52.2875 66.7958 53.8186 66.5734L68.432 64.4499C69.0401 64.3615 69.5657 63.9797 69.8376 63.4287L76.3729 50.1866C77.0573 48.7991 79.0358 48.7991 79.7205 50.1866Z" fill="#FBE88C"/>
<path d="M94.6947 96.2717L94.3136 94.0497L79.5053 86.2644C78.866 85.9283 78.1022 85.9283 77.4629 86.2644L69.5042 90.4486C68.7247 90.8584 67.8138 90.1965 67.9626 89.3286L69.8278 78.4533C69.9317 77.8477 69.7309 77.2299 69.2909 76.801L64.1295 71.7699C63.1619 70.8267 63.6958 69.1835 65.0329 68.9892L73.458 67.765C74.066 67.6766 74.5917 67.2948 74.8635 66.7438L81.3777 53.5446L79.7204 50.1866C79.0357 48.7991 77.0572 48.7991 76.3725 50.1866L69.8372 63.4287C69.5652 63.9798 69.0396 64.3616 68.4316 64.4499L53.8181 66.5734C52.287 66.7958 51.6756 68.6774 52.7835 69.7575L63.3579 80.0651C63.7979 80.4938 63.9987 81.1118 63.8949 81.7174L61.3987 96.2717C61.1371 97.7967 62.7378 98.9596 64.1074 98.2396L77.178 91.368C77.7219 91.0821 78.3715 91.0821 78.9154 91.368L91.9861 98.2398C93.3556 98.9594 94.9561 97.7966 94.6947 96.2717Z" fill="#FBE372"/>
</g>
<defs>
<linearGradient id="paint0_linear_467_17872" x1="44.3372" y1="23.2093" x2="182.035" y2="282.744" gradientUnits="userSpaceOnUse">
<stop stop-color="#FFFCEC"/>
<stop offset="1" stop-color="#FBE88C"/>
</linearGradient>
<clipPath id="clip0_467_17872">
<rect width="72.093" height="72.093" fill="white" transform="translate(41.814 41.5933)"/>
</clipPath>
</defs>
</svg>
